<svg width="3382" height="3382" viewBox="0 0 3382 3382" fill="none" xmlns="http://www.w3.org/2000/svg">
<rect width="3382" height="3382" rx="100" fill="#E9622D"/>
<path d="M1639.42 1834.01L791.614 1448.08L581.046 1546.77V1959.58L727.171 1897.65C739.093 1892.54 790.867 1880.97 832.763 1901.39L1487.43 2207.34L1485.39 2441.14L872.275 2159.69C816.754 2119.54 752.037 2137.57 739.434 2139.27L582.408 2207.34V2379.88C582.506 2428.55 591.619 2462.92 640.235 2491.51L1699.74 2993.75L2738.25 2496.27C2797.31 2463.17 2801.64 2426.16 2801.61 2419.02V2299.91C2804.2 2251.5 2794.46 2228.52 2757.33 2201.55L2635.39 2142.34C2635.39 2142.34 2619.38 2136.55 2598.26 2136.55C2577.14 2136.55 2558.75 2142.34 2558.75 2142.34L1886.71 2443.52V2205.98L2266.84 2028.33L1802.57 1817.36H1795.27C1733.23 1824.97 1711.6 1856.71 1639.42 1834.01Z" fill="#1E1E1E"/>
<path d="M2730.4 870.215L1693.22 389L646.519 862.291C620.526 880.969 597.11 879.752 579.002 946.225L581.449 1084.58C578.935 1111.29 603.272 1159.37 635.217 1174.05L752.615 1232.15C777.801 1240.01 791.241 1239.96 813.962 1232.15L1485.1 935.618V1174.05L1097.66 1348.71L1516.96 1544.39C1522.69 1544.37 1557.15 1562.77 1577.25 1558.69L1644.69 1540.1C1675.31 1529.51 1690.9 1535.07 1707.59 1540.1L2560.43 1924.53L2796.82 1817.67V1405.54L2658.53 1469.52C2629.85 1489.51 2572.01 1481.09 2547.15 1474.63L1882.26 1172.76L1885.67 934.535L2491.97 1211.22C2512.7 1221.29 2556.69 1246.27 2637.75 1234.7L2797.16 1162.21V986.605C2797.16 925.849 2781.81 891.113 2730.4 870.215Z" fill="#1E1E1E"/>
</svg>
