<svg width="2019" height="206" viewBox="0 0 2019 206" fill="none" xmlns="http://www.w3.org/2000/svg">
<mask id="path-1-outside-1_786_169" maskUnits="userSpaceOnUse" x="247.203" y="15.6001" width="1767" height="169" fill="black">
<rect fill="white" x="247.203" y="15.6001" width="1767" height="169"/>
<path d="M253.989 41.4741V29.0314H402.558V41.4741H334.588V177.6H321.959V41.4741H253.989ZM433.499 155.872C419.014 141.386 411.771 123.868 411.771 103.316C411.771 82.7638 419.014 65.245 433.499 50.7596C447.984 36.2742 465.503 29.0314 486.055 29.0314H560.34V41.4741H486.055C470.084 41.4741 456.218 46.8597 444.456 57.6309C432.818 68.2783 426.194 81.4019 424.585 97.0016H560.34V109.63H424.585C426.194 125.23 432.818 138.415 444.456 149.186C456.218 159.834 470.084 165.157 486.055 165.157H560.34V177.6H486.055C465.503 177.6 447.984 170.357 433.499 155.872ZM619.21 50.7596C633.695 36.2742 651.214 29.0314 671.766 29.0314C692.318 29.0314 709.837 36.2742 724.322 50.7596C738.808 65.245 746.05 82.7638 746.05 103.316V177.6H733.608V103.316C733.608 92.1731 730.822 81.8352 725.251 72.3021C719.803 62.7689 712.313 55.2786 702.78 49.8311C693.247 44.2597 682.909 41.4741 671.766 41.4741C660.623 41.4741 650.285 44.2597 640.752 49.8311C631.219 55.2786 623.667 62.7689 618.096 72.3021C612.648 81.8352 609.924 92.1731 609.924 103.316V177.6H597.482V103.316C597.482 82.7638 604.724 65.245 619.21 50.7596ZM823.492 29.0314H931.761V41.4741H823.492C815.816 41.4741 809.254 44.1978 803.806 49.6453C798.359 55.0929 795.635 61.6546 795.635 69.3307C795.635 77.0067 798.359 83.5685 803.806 89.016C809.254 94.3397 815.816 97.0016 823.492 97.0016H891.462C902.605 97.0016 912.076 100.963 919.876 108.887C927.799 116.687 931.761 126.158 931.761 137.301C931.761 148.443 927.799 157.977 919.876 165.9C912.076 173.7 902.605 177.6 891.462 177.6H783.192V165.157H891.462C899.138 165.157 905.7 162.434 911.147 156.986C916.595 151.539 919.319 144.977 919.319 137.301C919.319 129.625 916.595 123.125 911.147 117.801C905.7 112.354 899.138 109.63 891.462 109.63H823.492C812.349 109.63 802.816 105.73 794.892 97.9302C787.092 90.0065 783.192 80.4733 783.192 69.3307C783.192 58.188 787.092 48.7168 794.892 40.9169C802.816 32.9933 812.349 29.0314 823.492 29.0314ZM990.631 50.7596C1005.12 36.2742 1022.64 29.0314 1043.19 29.0314C1063.74 29.0314 1081.26 36.2742 1095.74 50.7596C1110.23 65.245 1117.47 82.7638 1117.47 103.316C1117.47 123.868 1110.23 141.386 1095.74 155.872C1081.26 170.357 1063.74 177.6 1043.19 177.6C1022.64 177.6 1005.12 170.357 990.631 155.872C976.146 141.386 968.903 123.868 968.903 103.316C968.903 82.7638 976.146 65.245 990.631 50.7596ZM1012.17 156.986C1021.71 162.434 1032.04 165.157 1043.19 165.157C1054.33 165.157 1064.67 162.434 1074.2 156.986C1083.73 151.415 1091.22 143.863 1096.67 134.329C1102.24 124.796 1105.03 114.458 1105.03 103.316C1105.03 92.1731 1102.24 81.8352 1096.67 72.3021C1091.22 62.7689 1083.73 55.2786 1074.2 49.8311C1064.67 44.2597 1054.33 41.4741 1043.19 41.4741C1032.04 41.4741 1021.71 44.2597 1012.17 49.8311C1002.64 55.2786 995.089 62.7689 989.517 72.3021C984.07 81.8352 981.346 92.1731 981.346 103.316C981.346 114.458 984.07 124.796 989.517 134.329C995.089 143.863 1002.64 151.415 1012.17 156.986ZM1049.69 96.8159C1051.54 98.5492 1052.47 100.716 1052.47 103.316C1052.47 105.916 1051.54 108.144 1049.69 110.001C1047.95 111.735 1045.79 112.601 1043.19 112.601C1040.59 112.601 1038.36 111.735 1036.5 110.001C1034.77 108.144 1033.9 105.916 1033.9 103.316C1033.9 100.716 1034.77 98.5492 1036.5 96.8159C1038.36 94.9588 1040.59 94.0302 1043.19 94.0302C1045.79 94.0302 1047.95 94.9588 1049.69 96.8159ZM1303.18 69.3307C1303.18 76.3877 1301.45 82.9495 1297.98 89.016C1294.64 94.9588 1290.12 99.7254 1284.43 103.316C1290.12 106.906 1294.64 111.735 1297.98 117.801C1301.45 123.744 1303.18 130.244 1303.18 137.301V177.6H1290.74V137.301C1290.74 129.625 1288.02 123.125 1282.57 117.801C1277.12 112.354 1270.56 109.63 1262.88 109.63H1167.06V177.6H1154.61V29.0314H1262.88C1274.03 29.0314 1283.5 32.9933 1291.3 40.9169C1299.22 48.7168 1303.18 58.188 1303.18 69.3307ZM1167.06 41.4741V97.0016H1262.88C1270.56 97.0016 1277.12 94.3397 1282.57 89.016C1288.02 83.5685 1290.74 77.0067 1290.74 69.3307C1290.74 61.6546 1288.02 55.0929 1282.57 49.6453C1277.12 44.1978 1270.56 41.4741 1262.88 41.4741H1167.06ZM1380.62 29.0314H1488.89V41.4741H1380.62C1372.95 41.4741 1366.39 44.1978 1360.94 49.6453C1355.49 55.0929 1352.77 61.6546 1352.77 69.3307C1352.77 77.0067 1355.49 83.5685 1360.94 89.016C1366.39 94.3397 1372.95 97.0016 1380.62 97.0016H1448.59C1459.74 97.0016 1469.21 100.963 1477.01 108.887C1484.93 116.687 1488.89 126.158 1488.89 137.301C1488.89 148.443 1484.93 157.977 1477.01 165.9C1469.21 173.7 1459.74 177.6 1448.59 177.6H1340.32V165.157H1448.59C1456.27 165.157 1462.83 162.434 1468.28 156.986C1473.73 151.539 1476.45 144.977 1476.45 137.301C1476.45 129.625 1473.73 123.125 1468.28 117.801C1462.83 112.354 1456.27 109.63 1448.59 109.63H1380.62C1369.48 109.63 1359.95 105.73 1352.02 97.9302C1344.22 90.0065 1340.32 80.4733 1340.32 69.3307C1340.32 58.188 1344.22 48.7168 1352.02 40.9169C1359.95 32.9933 1369.48 29.0314 1380.62 29.0314ZM1526.04 41.4741V29.0314H1674.6V41.4741H1606.63V177.6H1594.01V41.4741H1526.04ZM1657.88 177.6L1741.45 29.0314L1824.84 177.6H1809.61L1741.45 55.9595L1673.11 177.6H1657.88ZM1981.77 29.0314H1999.42L1933.86 103.316L1999.42 177.6H1981.77L1925.13 113.344L1868.49 177.6H1850.85L1916.4 103.316L1850.85 29.0314H1868.49L1925.13 93.2874L1981.77 29.0314Z"/>
</mask>
<path d="M253.989 41.4741V29.0314H402.558V41.4741H334.588V177.6H321.959V41.4741H253.989ZM433.499 155.872C419.014 141.386 411.771 123.868 411.771 103.316C411.771 82.7638 419.014 65.245 433.499 50.7596C447.984 36.2742 465.503 29.0314 486.055 29.0314H560.34V41.4741H486.055C470.084 41.4741 456.218 46.8597 444.456 57.6309C432.818 68.2783 426.194 81.4019 424.585 97.0016H560.34V109.63H424.585C426.194 125.23 432.818 138.415 444.456 149.186C456.218 159.834 470.084 165.157 486.055 165.157H560.34V177.6H486.055C465.503 177.6 447.984 170.357 433.499 155.872ZM619.21 50.7596C633.695 36.2742 651.214 29.0314 671.766 29.0314C692.318 29.0314 709.837 36.2742 724.322 50.7596C738.808 65.245 746.05 82.7638 746.05 103.316V177.6H733.608V103.316C733.608 92.1731 730.822 81.8352 725.251 72.3021C719.803 62.7689 712.313 55.2786 702.78 49.8311C693.247 44.2597 682.909 41.4741 671.766 41.4741C660.623 41.4741 650.285 44.2597 640.752 49.8311C631.219 55.2786 623.667 62.7689 618.096 72.3021C612.648 81.8352 609.924 92.1731 609.924 103.316V177.6H597.482V103.316C597.482 82.7638 604.724 65.245 619.21 50.7596ZM823.492 29.0314H931.761V41.4741H823.492C815.816 41.4741 809.254 44.1978 803.806 49.6453C798.359 55.0929 795.635 61.6546 795.635 69.3307C795.635 77.0067 798.359 83.5685 803.806 89.016C809.254 94.3397 815.816 97.0016 823.492 97.0016H891.462C902.605 97.0016 912.076 100.963 919.876 108.887C927.799 116.687 931.761 126.158 931.761 137.301C931.761 148.443 927.799 157.977 919.876 165.9C912.076 173.7 902.605 177.6 891.462 177.6H783.192V165.157H891.462C899.138 165.157 905.7 162.434 911.147 156.986C916.595 151.539 919.319 144.977 919.319 137.301C919.319 129.625 916.595 123.125 911.147 117.801C905.7 112.354 899.138 109.63 891.462 109.63H823.492C812.349 109.63 802.816 105.73 794.892 97.9302C787.092 90.0065 783.192 80.4733 783.192 69.3307C783.192 58.188 787.092 48.7168 794.892 40.9169C802.816 32.9933 812.349 29.0314 823.492 29.0314ZM990.631 50.7596C1005.12 36.2742 1022.64 29.0314 1043.19 29.0314C1063.74 29.0314 1081.26 36.2742 1095.74 50.7596C1110.23 65.245 1117.47 82.7638 1117.47 103.316C1117.47 123.868 1110.23 141.386 1095.74 155.872C1081.26 170.357 1063.74 177.6 1043.19 177.6C1022.64 177.6 1005.12 170.357 990.631 155.872C976.146 141.386 968.903 123.868 968.903 103.316C968.903 82.7638 976.146 65.245 990.631 50.7596ZM1012.17 156.986C1021.71 162.434 1032.04 165.157 1043.19 165.157C1054.33 165.157 1064.67 162.434 1074.2 156.986C1083.73 151.415 1091.22 143.863 1096.67 134.329C1102.24 124.796 1105.03 114.458 1105.03 103.316C1105.03 92.1731 1102.24 81.8352 1096.67 72.3021C1091.22 62.7689 1083.73 55.2786 1074.2 49.8311C1064.67 44.2597 1054.33 41.4741 1043.19 41.4741C1032.04 41.4741 1021.71 44.2597 1012.17 49.8311C1002.64 55.2786 995.089 62.7689 989.517 72.3021C984.07 81.8352 981.346 92.1731 981.346 103.316C981.346 114.458 984.07 124.796 989.517 134.329C995.089 143.863 1002.64 151.415 1012.17 156.986ZM1049.69 96.8159C1051.54 98.5492 1052.47 100.716 1052.47 103.316C1052.47 105.916 1051.54 108.144 1049.69 110.001C1047.95 111.735 1045.79 112.601 1043.19 112.601C1040.59 112.601 1038.36 111.735 1036.5 110.001C1034.77 108.144 1033.9 105.916 1033.9 103.316C1033.9 100.716 1034.77 98.5492 1036.5 96.8159C1038.36 94.9588 1040.59 94.0302 1043.19 94.0302C1045.79 94.0302 1047.95 94.9588 1049.69 96.8159ZM1303.18 69.3307C1303.18 76.3877 1301.45 82.9495 1297.98 89.016C1294.64 94.9588 1290.12 99.7254 1284.43 103.316C1290.12 106.906 1294.64 111.735 1297.98 117.801C1301.45 123.744 1303.18 130.244 1303.18 137.301V177.6H1290.74V137.301C1290.74 129.625 1288.02 123.125 1282.57 117.801C1277.12 112.354 1270.56 109.63 1262.88 109.63H1167.06V177.6H1154.61V29.0314H1262.88C1274.03 29.0314 1283.5 32.9933 1291.3 40.9169C1299.22 48.7168 1303.18 58.188 1303.18 69.3307ZM1167.06 41.4741V97.0016H1262.88C1270.56 97.0016 1277.12 94.3397 1282.57 89.016C1288.02 83.5685 1290.74 77.0067 1290.74 69.3307C1290.74 61.6546 1288.02 55.0929 1282.57 49.6453C1277.12 44.1978 1270.56 41.4741 1262.88 41.4741H1167.06ZM1380.62 29.0314H1488.89V41.4741H1380.62C1372.95 41.4741 1366.39 44.1978 1360.94 49.6453C1355.49 55.0929 1352.77 61.6546 1352.77 69.3307C1352.77 77.0067 1355.49 83.5685 1360.94 89.016C1366.39 94.3397 1372.95 97.0016 1380.62 97.0016H1448.59C1459.74 97.0016 1469.21 100.963 1477.01 108.887C1484.93 116.687 1488.89 126.158 1488.89 137.301C1488.89 148.443 1484.93 157.977 1477.01 165.9C1469.21 173.7 1459.74 177.6 1448.59 177.6H1340.32V165.157H1448.59C1456.27 165.157 1462.83 162.434 1468.28 156.986C1473.73 151.539 1476.45 144.977 1476.45 137.301C1476.45 129.625 1473.73 123.125 1468.28 117.801C1462.83 112.354 1456.27 109.63 1448.59 109.63H1380.62C1369.48 109.63 1359.95 105.73 1352.02 97.9302C1344.22 90.0065 1340.32 80.4733 1340.32 69.3307C1340.32 58.188 1344.22 48.7168 1352.02 40.9169C1359.95 32.9933 1369.48 29.0314 1380.62 29.0314ZM1526.04 41.4741V29.0314H1674.6V41.4741H1606.63V177.6H1594.01V41.4741H1526.04ZM1657.88 177.6L1741.45 29.0314L1824.84 177.6H1809.61L1741.45 55.9595L1673.11 177.6H1657.88ZM1981.77 29.0314H1999.42L1933.86 103.316L1999.42 177.6H1981.77L1925.13 113.344L1868.49 177.6H1850.85L1916.4 103.316L1850.85 29.0314H1868.49L1925.13 93.2874L1981.77 29.0314Z" fill="#E9622D"/>
<path d="M253.989 41.4741H247.673V47.7908H253.989V41.4741ZM253.989 29.0314V22.7147H247.673V29.0314H253.989ZM402.558 29.0314H408.875V22.7147H402.558V29.0314ZM402.558 41.4741V47.7908H408.875V41.4741H402.558ZM334.588 41.4741V35.1574H328.271V41.4741H334.588ZM334.588 177.6V183.917H340.904V177.6H334.588ZM321.959 177.6H315.643V183.917H321.959V177.6ZM321.959 41.4741H328.276V35.1574H321.959V41.4741ZM253.989 41.4741H260.306V29.0314H253.989H247.673V41.4741H253.989ZM253.989 29.0314V35.3481H402.558V29.0314V22.7147H253.989V29.0314ZM402.558 29.0314H396.241V41.4741H402.558H408.875V29.0314H402.558ZM402.558 41.4741V35.1574H334.588V41.4741V47.7908H402.558V41.4741ZM334.588 41.4741H328.271V177.6H334.588H340.904V41.4741H334.588ZM334.588 177.6V171.283H321.959V177.6V183.917H334.588V177.6ZM321.959 177.6H328.276V41.4741H321.959H315.643V177.6H321.959ZM321.959 41.4741V35.1574H253.989V41.4741V47.7908H321.959V41.4741ZM433.499 155.872L429.032 160.339L429.032 160.339L433.499 155.872ZM433.499 50.7596L429.032 46.293L429.032 46.293L433.499 50.7596ZM560.34 29.0314H566.656V22.7147H560.34V29.0314ZM560.34 41.4741V47.7908H566.656V41.4741H560.34ZM444.456 57.6309L448.72 62.2914L448.722 62.2893L444.456 57.6309ZM424.585 97.0016L418.302 96.3533L417.583 103.318H424.585V97.0016ZM560.34 97.0016H566.656V90.6849H560.34V97.0016ZM560.34 109.63V115.947H566.656V109.63H560.34ZM424.585 109.63V103.313H417.583L418.302 110.278L424.585 109.63ZM444.456 149.186L440.165 153.822L440.191 153.846L440.217 153.869L444.456 149.186ZM560.34 165.157H566.656V158.841H560.34V165.157ZM560.34 177.6V183.917H566.656V177.6H560.34ZM433.499 155.872L437.966 151.405C424.669 138.109 418.088 122.199 418.088 103.316H411.771H405.454C405.454 125.537 413.358 144.664 429.032 160.339L433.499 155.872ZM411.771 103.316H418.088C418.088 84.4329 424.669 68.5227 437.966 55.2262L433.499 50.7596L429.032 46.293C413.358 61.9674 405.454 81.0946 405.454 103.316H411.771ZM433.499 50.7596L437.966 55.2262C451.262 41.9297 467.172 35.3481 486.055 35.3481V29.0314V22.7147C463.834 22.7147 444.707 30.6187 429.032 46.293L433.499 50.7596ZM486.055 29.0314V35.3481H560.34V29.0314V22.7147H486.055V29.0314ZM560.34 29.0314H554.023V41.4741H560.34H566.656V29.0314H560.34ZM560.34 41.4741V35.1574H486.055V41.4741V47.7908H560.34V41.4741ZM486.055 41.4741V35.1574C468.507 35.1574 453.118 41.1329 440.19 52.9725L444.456 57.6309L448.722 62.2893C459.317 52.5864 471.661 47.7908 486.055 47.7908V41.4741ZM444.456 57.6309L440.192 52.9704C427.42 64.6559 420.071 79.2041 418.302 96.3533L424.585 97.0016L430.868 97.6499C432.318 83.5997 438.217 71.9007 448.72 62.2914L444.456 57.6309ZM424.585 97.0016V103.318H560.34V97.0016V90.6849H424.585V97.0016ZM560.34 97.0016H554.023V109.63H560.34H566.656V97.0016H560.34ZM560.34 109.63V103.313H424.585V109.63V115.947H560.34V109.63ZM424.585 109.63L418.302 110.278C420.071 127.424 427.415 142.021 440.165 153.822L444.456 149.186L448.747 144.55C438.222 134.809 432.318 123.035 430.868 108.982L424.585 109.63ZM444.456 149.186L440.217 153.869C453.149 165.576 468.529 171.474 486.055 171.474V165.157V158.841C471.639 158.841 459.287 154.092 448.695 144.503L444.456 149.186ZM486.055 165.157V171.474H560.34V165.157V158.841H486.055V165.157ZM560.34 165.157H554.023V177.6H560.34H566.656V165.157H560.34ZM560.34 177.6V171.283H486.055V177.6V183.917H560.34V177.6ZM486.055 177.6V171.283C467.172 171.283 451.262 164.702 437.966 151.405L433.499 155.872L429.032 160.339C444.707 176.013 463.834 183.917 486.055 183.917V177.6ZM619.21 50.7596L614.743 46.293L614.743 46.293L619.21 50.7596ZM724.322 50.7596L728.789 46.293L728.789 46.293L724.322 50.7596ZM746.05 177.6V183.917H752.367V177.6H746.05ZM733.608 177.6H727.291V183.917H733.608V177.6ZM725.251 72.3021L719.766 75.436L719.782 75.4627L719.797 75.4893L725.251 72.3021ZM702.78 49.8311L699.593 55.2847L699.619 55.3002L699.646 55.3155L702.78 49.8311ZM640.752 49.8311L643.886 55.3155L643.913 55.3002L643.94 55.2847L640.752 49.8311ZM618.096 72.3021L612.642 69.1149L612.626 69.1414L612.611 69.1681L618.096 72.3021ZM609.924 177.6V183.917H616.241V177.6H609.924ZM597.482 177.6H591.165V183.917H597.482V177.6ZM619.21 50.7596L623.676 55.2262C636.973 41.9297 652.883 35.3481 671.766 35.3481V29.0314V22.7147C649.545 22.7147 630.418 30.6187 614.743 46.293L619.21 50.7596ZM671.766 29.0314V35.3481C690.649 35.3481 706.559 41.9297 719.856 55.2262L724.322 50.7596L728.789 46.293C713.114 30.6187 693.987 22.7147 671.766 22.7147V29.0314ZM724.322 50.7596L719.856 55.2262C733.152 68.5227 739.734 84.4329 739.734 103.316H746.05H752.367C752.367 81.0946 744.463 61.9674 728.789 46.293L724.322 50.7596ZM746.05 103.316H739.734V177.6H746.05H752.367V103.316H746.05ZM746.05 177.6V171.283H733.608V177.6V183.917H746.05V177.6ZM733.608 177.6H739.924V103.316H733.608H727.291V177.6H733.608ZM733.608 103.316H739.924C739.924 91.0638 736.846 79.6244 730.704 69.1149L725.251 72.3021L719.797 75.4893C724.798 84.0461 727.291 93.2825 727.291 103.316H733.608ZM725.251 72.3021L730.735 69.1681C724.728 58.6557 716.426 50.3537 705.914 44.3466L702.78 49.8311L699.646 55.3155C708.2 60.2034 714.878 66.8821 719.766 75.436L725.251 72.3021ZM702.78 49.8311L705.967 44.3774C695.457 38.2355 684.018 35.1574 671.766 35.1574V41.4741V47.7908C681.799 47.7908 691.036 50.284 699.593 55.2847L702.78 49.8311ZM671.766 41.4741V35.1574C659.514 35.1574 648.075 38.2355 637.565 44.3774L640.752 49.8311L643.94 55.2847C652.496 50.284 661.733 47.7908 671.766 47.7908V41.4741ZM640.752 49.8311L637.618 44.3466C627.118 50.3466 618.769 58.6316 612.642 69.1149L618.096 72.3021L623.549 75.4893C628.565 66.9062 635.32 60.2105 643.886 55.3155L640.752 49.8311ZM618.096 72.3021L612.611 69.1681C606.61 79.6704 603.608 91.0909 603.608 103.316H609.924H616.241C616.241 93.2553 618.686 84 623.58 75.436L618.096 72.3021ZM609.924 103.316H603.608V177.6H609.924H616.241V103.316H609.924ZM609.924 177.6V171.283H597.482V177.6V183.917H609.924V177.6ZM597.482 177.6H603.798V103.316H597.482H591.165V177.6H597.482ZM597.482 103.316H603.798C603.798 84.4329 610.38 68.5227 623.676 55.2262L619.21 50.7596L614.743 46.293C599.069 61.9674 591.165 81.0946 591.165 103.316H597.482ZM931.761 29.0314H938.078V22.7147H931.761V29.0314ZM931.761 41.4741V47.7908H938.078V41.4741H931.761ZM803.806 49.6453L808.273 54.1119L808.273 54.1119L803.806 49.6453ZM803.806 89.016L799.34 93.4826L799.365 93.5083L799.391 93.5337L803.806 89.016ZM919.876 108.887L915.374 113.318L915.409 113.354L915.444 113.389L919.876 108.887ZM919.876 165.9L915.409 161.434L915.409 161.434L919.876 165.9ZM783.192 177.6H776.876V183.917H783.192V177.6ZM783.192 165.157V158.841H776.876V165.157H783.192ZM911.147 156.986L906.681 152.52L906.681 152.52L911.147 156.986ZM911.147 117.801L906.681 122.268L906.706 122.293L906.732 122.319L911.147 117.801ZM794.892 97.9302L790.391 102.361L790.426 102.397L790.461 102.432L794.892 97.9302ZM794.892 40.9169L790.426 36.4503L790.426 36.4503L794.892 40.9169ZM823.492 29.0314V35.3481H931.761V29.0314V22.7147H823.492V29.0314ZM931.761 29.0314H925.444V41.4741H931.761H938.078V29.0314H931.761ZM931.761 41.4741V35.1574H823.492V41.4741V47.7908H931.761V41.4741ZM823.492 41.4741V35.1574C814.134 35.1574 805.967 38.5515 799.34 45.1788L803.806 49.6453L808.273 54.1119C812.541 49.8442 817.498 47.7908 823.492 47.7908V41.4741ZM803.806 49.6453L799.34 45.1788C792.713 51.806 789.318 59.9725 789.318 69.3307H795.635H801.952C801.952 63.3368 804.005 58.3797 808.273 54.1119L803.806 49.6453ZM795.635 69.3307H789.318C789.318 78.6889 792.713 86.8553 799.34 93.4826L803.806 89.016L808.273 84.5495C804.005 80.2817 801.952 75.3246 801.952 69.3307H795.635ZM803.806 89.016L799.391 93.5337C806.029 100.021 814.18 103.318 823.492 103.318V97.0016V90.6849C817.451 90.6849 812.478 88.6588 808.221 84.4984L803.806 89.016ZM823.492 97.0016V103.318H891.462V97.0016V90.6849H823.492V97.0016ZM891.462 97.0016V103.318C900.916 103.318 908.764 106.604 915.374 113.318L919.876 108.887L924.377 104.456C915.387 95.323 904.293 90.6849 891.462 90.6849V97.0016ZM919.876 108.887L915.444 113.389C922.159 119.998 925.444 127.847 925.444 137.301H931.761H938.078C938.078 124.47 933.44 113.376 924.307 104.385L919.876 108.887ZM931.761 137.301H925.444C925.444 146.758 922.156 154.687 915.409 161.434L919.876 165.9L924.342 170.367C933.443 161.266 938.078 150.129 938.078 137.301H931.761ZM919.876 165.9L915.409 161.434C908.807 168.036 900.948 171.283 891.462 171.283V177.6V183.917C904.261 183.917 915.344 179.365 924.342 170.367L919.876 165.9ZM891.462 177.6V171.283H783.192V177.6V183.917H891.462V177.6ZM783.192 177.6H789.509V165.157H783.192H776.876V177.6H783.192ZM783.192 165.157V171.474H891.462V165.157V158.841H783.192V165.157ZM891.462 165.157V171.474C900.82 171.474 908.987 168.08 915.614 161.453L911.147 156.986L906.681 152.52C902.413 156.787 897.456 158.841 891.462 158.841V165.157ZM911.147 156.986L915.614 161.453C922.241 154.825 925.635 146.659 925.635 137.301H919.319H913.002C913.002 143.295 910.948 148.252 906.681 152.52L911.147 156.986ZM919.319 137.301H925.635C925.635 127.939 922.236 119.806 915.562 113.284L911.147 117.801L906.732 122.319C910.953 126.444 913.002 131.31 913.002 137.301H919.319ZM911.147 117.801L915.614 113.335C908.987 106.707 900.82 103.313 891.462 103.313V109.63V115.947C897.456 115.947 902.413 118 906.681 122.268L911.147 117.801ZM891.462 109.63V103.313H823.492V109.63V115.947H891.462V109.63ZM823.492 109.63V103.313C814.003 103.313 806.063 100.062 799.324 93.4285L794.892 97.9302L790.461 102.432C799.569 111.398 810.695 115.947 823.492 115.947V109.63ZM794.892 97.9302L799.394 93.4989C792.76 86.7597 789.509 78.8193 789.509 69.3307H783.192H776.876C776.876 82.1274 781.425 93.2533 790.391 102.361L794.892 97.9302ZM783.192 69.3307H789.509C789.509 59.8442 792.757 51.9853 799.359 45.3835L794.892 40.9169L790.426 36.4503C781.428 45.4483 776.876 56.5319 776.876 69.3307H783.192ZM794.892 40.9169L799.359 45.3835C806.105 38.6369 814.035 35.3481 823.492 35.3481V29.0314V22.7147C810.663 22.7147 799.526 27.3496 790.426 36.4503L794.892 40.9169ZM990.631 50.7596L986.165 46.293L986.165 46.293L990.631 50.7596ZM1095.74 50.7596L1100.21 46.293L1100.21 46.293L1095.74 50.7596ZM1095.74 155.872L1100.21 160.339L1100.21 160.339L1095.74 155.872ZM990.631 155.872L986.165 160.339L986.165 160.339L990.631 155.872ZM1012.17 156.986L1008.99 162.44L1009.01 162.455L1009.04 162.471L1012.17 156.986ZM1074.2 156.986L1077.34 162.471L1077.36 162.455L1077.39 162.44L1074.2 156.986ZM1096.67 134.329L1091.22 131.142L1091.2 131.169L1091.19 131.196L1096.67 134.329ZM1096.67 72.3021L1091.19 75.436L1091.2 75.4627L1091.22 75.4893L1096.67 72.3021ZM1074.2 49.8311L1071.01 55.2847L1071.04 55.3002L1071.07 55.3155L1074.2 49.8311ZM1012.17 49.8311L1015.31 55.3155L1015.33 55.3002L1015.36 55.2847L1012.17 49.8311ZM989.517 72.3021L984.064 69.1149L984.048 69.1414L984.033 69.1681L989.517 72.3021ZM989.517 134.329L984.033 137.463L984.048 137.49L984.064 137.517L989.517 134.329ZM1049.69 96.8159L1045.07 101.126L1045.22 101.285L1045.38 101.434L1049.69 96.8159ZM1049.69 110.001L1054.15 114.468L1049.69 110.001ZM1036.5 110.001L1031.88 114.311L1032.03 114.471L1032.19 114.619L1036.5 110.001ZM1036.5 96.8159L1032.04 92.3493L1032.04 92.3493L1036.5 96.8159ZM990.631 50.7596L995.098 55.2262C1008.39 41.9297 1024.3 35.3481 1043.19 35.3481V29.0314V22.7147C1020.97 22.7147 1001.84 30.6187 986.165 46.293L990.631 50.7596ZM1043.19 29.0314V35.3481C1062.07 35.3481 1077.98 41.9297 1091.28 55.2262L1095.74 50.7596L1100.21 46.293C1084.54 30.6187 1065.41 22.7147 1043.19 22.7147V29.0314ZM1095.74 50.7596L1091.28 55.2262C1104.57 68.5227 1111.16 84.4329 1111.16 103.316H1117.47H1123.79C1123.79 81.0946 1115.88 61.9674 1100.21 46.293L1095.74 50.7596ZM1117.47 103.316H1111.16C1111.16 122.199 1104.57 138.109 1091.28 151.405L1095.74 155.872L1100.21 160.339C1115.88 144.664 1123.79 125.537 1123.79 103.316H1117.47ZM1095.74 155.872L1091.28 151.405C1077.98 164.702 1062.07 171.283 1043.19 171.283V177.6V183.917C1065.41 183.917 1084.54 176.013 1100.21 160.339L1095.74 155.872ZM1043.19 177.6V171.283C1024.3 171.283 1008.39 164.702 995.098 151.405L990.631 155.872L986.165 160.339C1001.84 176.013 1020.97 183.917 1043.19 183.917V177.6ZM990.631 155.872L995.098 151.405C981.802 138.109 975.22 122.199 975.22 103.316H968.903H962.587C962.587 125.537 970.491 144.664 986.165 160.339L990.631 155.872ZM968.903 103.316H975.22C975.22 84.4329 981.802 68.5227 995.098 55.2262L990.631 50.7596L986.165 46.293C970.491 61.9674 962.587 81.0946 962.587 103.316H968.903ZM1012.17 156.986L1009.04 162.471C1019.54 168.472 1030.96 171.474 1043.19 171.474V165.157V158.841C1033.13 158.841 1023.87 156.395 1015.31 151.502L1012.17 156.986ZM1043.19 165.157V171.474C1055.41 171.474 1066.83 168.472 1077.34 162.471L1074.2 156.986L1071.07 151.502C1062.5 156.395 1053.25 158.841 1043.19 158.841V165.157ZM1074.2 156.986L1077.39 162.44C1087.87 156.313 1096.16 147.963 1102.16 137.463L1096.67 134.329L1091.19 131.196C1086.29 139.762 1079.6 146.516 1071.01 151.533L1074.2 156.986ZM1096.67 134.329L1102.13 137.517C1108.27 127.007 1111.35 115.568 1111.35 103.316H1105.03H1098.71C1098.71 113.349 1096.22 122.585 1091.22 131.142L1096.67 134.329ZM1105.03 103.316H1111.35C1111.35 91.0638 1108.27 79.6244 1102.13 69.1149L1096.67 72.3021L1091.22 75.4893C1096.22 84.0461 1098.71 93.2825 1098.71 103.316H1105.03ZM1096.67 72.3021L1102.16 69.1681C1096.15 58.6557 1087.85 50.3537 1077.34 44.3466L1074.2 49.8311L1071.07 55.3155C1079.62 60.2034 1086.3 66.8821 1091.19 75.436L1096.67 72.3021ZM1074.2 49.8311L1077.39 44.3774C1066.88 38.2355 1055.44 35.1574 1043.19 35.1574V41.4741V47.7908C1053.22 47.7908 1062.46 50.284 1071.01 55.2847L1074.2 49.8311ZM1043.19 41.4741V35.1574C1030.94 35.1574 1019.5 38.2355 1008.99 44.3774L1012.17 49.8311L1015.36 55.2847C1023.92 50.284 1033.15 47.7908 1043.19 47.7908V41.4741ZM1012.17 49.8311L1009.04 44.3466C998.54 50.3466 990.19 58.6316 984.064 69.1149L989.517 72.3021L994.971 75.4893C999.987 66.9062 1006.74 60.2105 1015.31 55.3155L1012.17 49.8311ZM989.517 72.3021L984.033 69.1681C978.031 79.6704 975.029 91.0909 975.029 103.316H981.346H987.663C987.663 93.2553 990.108 84 995.002 75.436L989.517 72.3021ZM981.346 103.316H975.029C975.029 115.541 978.031 126.961 984.033 137.463L989.517 134.329L995.002 131.196C990.108 122.632 987.663 113.376 987.663 103.316H981.346ZM989.517 134.329L984.064 137.517C990.183 147.988 998.516 156.32 1008.99 162.44L1012.17 156.986L1015.36 151.533C1006.77 146.509 999.994 139.738 994.971 131.142L989.517 134.329ZM1049.69 96.8159L1045.38 101.434C1045.92 101.941 1046.16 102.42 1046.16 103.316H1052.47H1058.79C1058.79 99.0115 1057.17 95.1574 1054 92.198L1049.69 96.8159ZM1052.47 103.316H1046.16C1046.16 104.221 1045.91 104.849 1045.22 105.535L1049.69 110.001L1054.15 114.468C1057.18 111.44 1058.79 107.61 1058.79 103.316H1052.47ZM1049.69 110.001L1045.22 105.535C1044.75 106.006 1044.23 106.285 1043.19 106.285V112.601V118.918C1047.35 118.918 1051.16 117.463 1054.15 114.468L1049.69 110.001ZM1043.19 112.601V106.285C1042.15 106.285 1041.47 105.997 1040.81 105.384L1036.5 110.001L1032.19 114.619C1035.25 117.472 1039.03 118.918 1043.19 118.918V112.601ZM1036.5 110.001L1041.12 105.691C1040.51 105.034 1040.22 104.357 1040.22 103.316H1033.9H1027.59C1027.59 107.474 1029.03 111.254 1031.88 114.311L1036.5 110.001ZM1033.9 103.316H1040.22C1040.22 102.278 1040.5 101.754 1040.97 101.282L1036.5 96.8159L1032.04 92.3493C1029.04 95.3447 1027.59 99.1533 1027.59 103.316H1033.9ZM1036.5 96.8159L1040.97 101.282C1041.65 100.596 1042.28 100.347 1043.19 100.347V94.0302V87.7135C1038.89 87.7135 1035.06 89.3211 1032.04 92.3493L1036.5 96.8159ZM1043.19 94.0302V100.347C1044.08 100.347 1044.56 100.582 1045.07 101.126L1049.69 96.8159L1054.31 92.5059C1051.35 89.3351 1047.49 87.7135 1043.19 87.7135V94.0302ZM1297.98 89.016L1292.5 85.8821L1292.49 85.9006L1292.48 85.9192L1297.98 89.016ZM1284.43 103.316L1281.06 97.9723L1272.58 103.316L1281.06 108.659L1284.43 103.316ZM1297.98 117.801L1292.45 120.85L1292.49 120.917L1292.53 120.984L1297.98 117.801ZM1303.18 177.6V183.917H1309.5V177.6H1303.18ZM1290.74 177.6H1284.42V183.917H1290.74V177.6ZM1282.57 117.801L1278.1 122.268L1278.13 122.293L1278.15 122.319L1282.57 117.801ZM1167.06 109.63V103.313H1160.74V109.63H1167.06ZM1167.06 177.6V183.917H1173.37V177.6H1167.06ZM1154.61 177.6H1148.3V183.917H1154.61V177.6ZM1154.61 29.0314V22.7147H1148.3V29.0314H1154.61ZM1291.3 40.9169L1286.8 45.3482L1286.83 45.3836L1286.87 45.4185L1291.3 40.9169ZM1167.06 41.4741V35.1574H1160.74V41.4741H1167.06ZM1167.06 97.0016H1160.74V103.318H1167.06V97.0016ZM1282.57 89.016L1286.98 93.5337L1287.01 93.5083L1287.04 93.4826L1282.57 89.016ZM1282.57 49.6453L1278.1 54.1119L1278.1 54.1119L1282.57 49.6453ZM1303.18 69.3307H1296.87C1296.87 75.3 1295.41 80.7799 1292.5 85.8821L1297.98 89.016L1303.47 92.15C1307.48 85.119 1309.5 77.4754 1309.5 69.3307H1303.18ZM1297.98 89.016L1292.48 85.9192C1289.64 90.9594 1285.85 94.9491 1281.06 97.9723L1284.43 103.316L1287.79 108.659C1294.39 104.502 1299.64 98.9582 1303.49 92.1129L1297.98 89.016ZM1284.43 103.316L1281.06 108.659C1285.82 111.663 1289.61 115.691 1292.45 120.85L1297.98 117.801L1303.52 114.753C1299.67 107.779 1294.42 102.149 1287.79 97.9723L1284.43 103.316ZM1297.98 117.801L1292.53 120.984C1295.41 125.935 1296.87 131.332 1296.87 137.301H1303.18H1309.5C1309.5 129.156 1307.48 121.553 1303.44 114.618L1297.98 117.801ZM1303.18 137.301H1296.87V177.6H1303.18H1309.5V137.301H1303.18ZM1303.18 177.6V171.283H1290.74V177.6V183.917H1303.18V177.6ZM1290.74 177.6H1297.06V137.301H1290.74H1284.42V177.6H1290.74ZM1290.74 137.301H1297.06C1297.06 127.939 1293.66 119.806 1286.98 113.284L1282.57 117.801L1278.15 122.319C1282.37 126.444 1284.42 131.31 1284.42 137.301H1290.74ZM1282.57 117.801L1287.04 113.335C1280.41 106.707 1272.24 103.313 1262.88 103.313V109.63V115.947C1268.88 115.947 1273.83 118 1278.1 122.268L1282.57 117.801ZM1262.88 109.63V103.313H1167.06V109.63V115.947H1262.88V109.63ZM1167.06 109.63H1160.74V177.6H1167.06H1173.37V109.63H1167.06ZM1167.06 177.6V171.283H1154.61V177.6V183.917H1167.06V177.6ZM1154.61 177.6H1160.93V29.0314H1154.61H1148.3V177.6H1154.61ZM1154.61 29.0314V35.3481H1262.88V29.0314V22.7147H1154.61V29.0314ZM1262.88 29.0314V35.3481C1272.34 35.3481 1280.19 38.6337 1286.8 45.3482L1291.3 40.9169L1295.8 36.4857C1286.81 27.3529 1275.71 22.7147 1262.88 22.7147V29.0314ZM1291.3 40.9169L1286.87 45.4185C1293.58 52.0281 1296.87 59.8764 1296.87 69.3307H1303.18H1309.5C1309.5 56.4996 1304.86 45.4054 1295.73 36.4153L1291.3 40.9169ZM1167.06 41.4741H1160.74V97.0016H1167.06H1173.37V41.4741H1167.06ZM1167.06 97.0016V103.318H1262.88V97.0016V90.6849H1167.06V97.0016ZM1262.88 97.0016V103.318C1272.2 103.318 1280.35 100.021 1286.98 93.5337L1282.57 89.016L1278.15 84.4984C1273.9 88.6588 1268.92 90.6849 1262.88 90.6849V97.0016ZM1282.57 89.016L1287.04 93.4826C1293.66 86.8553 1297.06 78.6889 1297.06 69.3307H1290.74H1284.42C1284.42 75.3246 1282.37 80.2817 1278.1 84.5495L1282.57 89.016ZM1290.74 69.3307H1297.06C1297.06 59.9725 1293.66 51.806 1287.04 45.1788L1282.57 49.6453L1278.1 54.1119C1282.37 58.3797 1284.42 63.3368 1284.42 69.3307H1290.74ZM1282.57 49.6453L1287.04 45.1788C1280.41 38.5515 1272.24 35.1574 1262.88 35.1574V41.4741V47.7908C1268.88 47.7908 1273.83 49.8442 1278.1 54.1119L1282.57 49.6453ZM1262.88 41.4741V35.1574H1167.06V41.4741V47.7908H1262.88V41.4741ZM1488.89 29.0314H1495.21V22.7147H1488.89V29.0314ZM1488.89 41.4741V47.7908H1495.21V41.4741H1488.89ZM1360.94 49.6453L1365.41 54.1119L1365.41 54.1119L1360.94 49.6453ZM1360.94 89.016L1356.47 93.4826L1356.5 93.5083L1356.52 93.5337L1360.94 89.016ZM1477.01 108.887L1472.51 113.318L1472.54 113.354L1472.58 113.389L1477.01 108.887ZM1477.01 165.9L1472.54 161.434L1472.54 161.434L1477.01 165.9ZM1340.32 177.6H1334.01V183.917H1340.32V177.6ZM1340.32 165.157V158.841H1334.01V165.157H1340.32ZM1468.28 156.986L1463.81 152.52L1463.81 152.52L1468.28 156.986ZM1468.28 117.801L1463.81 122.268L1463.84 122.293L1463.86 122.319L1468.28 117.801ZM1352.02 97.9302L1347.52 102.361L1347.56 102.397L1347.59 102.432L1352.02 97.9302ZM1352.02 40.9169L1347.56 36.4503L1347.56 36.4503L1352.02 40.9169ZM1380.62 29.0314V35.3481H1488.89V29.0314V22.7147H1380.62V29.0314ZM1488.89 29.0314H1482.58V41.4741H1488.89H1495.21V29.0314H1488.89ZM1488.89 41.4741V35.1574H1380.62V41.4741V47.7908H1488.89V41.4741ZM1380.62 41.4741V35.1574C1371.27 35.1574 1363.1 38.5515 1356.47 45.1788L1360.94 49.6453L1365.41 54.1119C1369.67 49.8442 1374.63 47.7908 1380.62 47.7908V41.4741ZM1360.94 49.6453L1356.47 45.1788C1349.85 51.806 1346.45 59.9725 1346.45 69.3307H1352.77H1359.08C1359.08 63.3368 1361.14 58.3797 1365.41 54.1119L1360.94 49.6453ZM1352.77 69.3307H1346.45C1346.45 78.6889 1349.85 86.8553 1356.47 93.4826L1360.94 89.016L1365.41 84.5495C1361.14 80.2817 1359.08 75.3246 1359.08 69.3307H1352.77ZM1360.94 89.016L1356.52 93.5337C1363.16 100.021 1371.31 103.318 1380.62 103.318V97.0016V90.6849C1374.58 90.6849 1369.61 88.6588 1365.35 84.4984L1360.94 89.016ZM1380.62 97.0016V103.318H1448.59V97.0016V90.6849H1380.62V97.0016ZM1448.59 97.0016V103.318C1458.05 103.318 1465.9 106.604 1472.51 113.318L1477.01 108.887L1481.51 104.456C1472.52 95.323 1461.43 90.6849 1448.59 90.6849V97.0016ZM1477.01 108.887L1472.58 113.389C1479.29 119.998 1482.58 127.847 1482.58 137.301H1488.89H1495.21C1495.21 124.47 1490.57 113.376 1481.44 104.385L1477.01 108.887ZM1488.89 137.301H1482.58C1482.58 146.758 1479.29 154.687 1472.54 161.434L1477.01 165.9L1481.47 170.367C1490.58 161.266 1495.21 150.129 1495.21 137.301H1488.89ZM1477.01 165.9L1472.54 161.434C1465.94 168.036 1458.08 171.283 1448.59 171.283V177.6V183.917C1461.39 183.917 1472.48 179.365 1481.47 170.367L1477.01 165.9ZM1448.59 177.6V171.283H1340.32V177.6V183.917H1448.59V177.6ZM1340.32 177.6H1346.64V165.157H1340.32H1334.01V177.6H1340.32ZM1340.32 165.157V171.474H1448.59V165.157V158.841H1340.32V165.157ZM1448.59 165.157V171.474C1457.95 171.474 1466.12 168.08 1472.75 161.453L1468.28 156.986L1463.81 152.52C1459.55 156.787 1454.59 158.841 1448.59 158.841V165.157ZM1468.28 156.986L1472.75 161.453C1479.37 154.825 1482.77 146.659 1482.77 137.301H1476.45H1470.13C1470.13 143.295 1468.08 148.252 1463.81 152.52L1468.28 156.986ZM1476.45 137.301H1482.77C1482.77 127.939 1479.37 119.806 1472.69 113.284L1468.28 117.801L1463.86 122.319C1468.09 126.444 1470.13 131.31 1470.13 137.301H1476.45ZM1468.28 117.801L1472.75 113.335C1466.12 106.707 1457.95 103.313 1448.59 103.313V109.63V115.947C1454.59 115.947 1459.55 118 1463.81 122.268L1468.28 117.801ZM1448.59 109.63V103.313H1380.62V109.63V115.947H1448.59V109.63ZM1380.62 109.63V103.313C1371.14 103.313 1363.2 100.062 1356.46 93.4285L1352.02 97.9302L1347.59 102.432C1356.7 111.398 1367.83 115.947 1380.62 115.947V109.63ZM1352.02 97.9302L1356.53 93.4989C1349.89 86.7597 1346.64 78.8193 1346.64 69.3307H1340.32H1334.01C1334.01 82.1274 1338.56 93.2533 1347.52 102.361L1352.02 97.9302ZM1340.32 69.3307H1346.64C1346.64 59.8442 1349.89 51.9853 1356.49 45.3835L1352.02 40.9169L1347.56 36.4503C1338.56 45.4483 1334.01 56.5319 1334.01 69.3307H1340.32ZM1352.02 40.9169L1356.49 45.3835C1363.24 38.6369 1371.17 35.3481 1380.62 35.3481V29.0314V22.7147C1367.8 22.7147 1356.66 27.3496 1347.56 36.4503L1352.02 40.9169ZM1526.04 41.4741H1519.72V47.7908H1526.04V41.4741ZM1526.04 29.0314V22.7147H1519.72V29.0314H1526.04ZM1674.6 29.0314H1680.92V22.7147H1674.6V29.0314ZM1674.6 41.4741V47.7908H1680.92V41.4741H1674.6ZM1606.63 41.4741V35.1574H1600.32V41.4741H1606.63ZM1606.63 177.6V183.917H1612.95V177.6H1606.63ZM1594.01 177.6H1587.69V183.917H1594.01V177.6ZM1594.01 41.4741H1600.32V35.1574H1594.01V41.4741ZM1526.04 41.4741H1532.35V29.0314H1526.04H1519.72V41.4741H1526.04ZM1526.04 29.0314V35.3481H1674.6V29.0314V22.7147H1526.04V29.0314ZM1674.6 29.0314H1668.29V41.4741H1674.6H1680.92V29.0314H1674.6ZM1674.6 41.4741V35.1574H1606.63V41.4741V47.7908H1674.6V41.4741ZM1606.63 41.4741H1600.32V177.6H1606.63H1612.95V41.4741H1606.63ZM1606.63 177.6V171.283H1594.01V177.6V183.917H1606.63V177.6ZM1594.01 177.6H1600.32V41.4741H1594.01H1587.69V177.6H1594.01ZM1594.01 41.4741V35.1574H1526.04V41.4741V47.7908H1594.01V41.4741ZM1657.88 177.6L1652.38 174.503L1647.08 183.917H1657.88V177.6ZM1741.45 29.0314L1746.96 25.9398L1741.46 16.1362L1735.95 25.9346L1741.45 29.0314ZM1824.84 177.6V183.917H1835.63L1830.35 174.508L1824.84 177.6ZM1809.61 177.6L1804.1 180.688L1805.91 183.917H1809.61V177.6ZM1741.45 55.9595L1746.96 52.8719L1741.46 43.0502L1735.95 52.8655L1741.45 55.9595ZM1673.11 177.6V183.917H1676.81L1678.62 180.694L1673.11 177.6ZM1657.88 177.6L1663.39 180.697L1746.96 32.1283L1741.45 29.0314L1735.95 25.9346L1652.38 174.503L1657.88 177.6ZM1741.45 29.0314L1735.94 32.123L1819.33 180.692L1824.84 177.6L1830.35 174.508L1746.96 25.9398L1741.45 29.0314ZM1824.84 177.6V171.283H1809.61V177.6V183.917H1824.84V177.6ZM1809.61 177.6L1815.12 174.512L1746.96 52.8719L1741.45 55.9595L1735.94 59.0471L1804.1 180.688L1809.61 177.6ZM1741.45 55.9595L1735.95 52.8655L1667.6 174.506L1673.11 177.6L1678.62 180.694L1746.96 59.0535L1741.45 55.9595ZM1673.11 177.6V171.283H1657.88V177.6V183.917H1673.11V177.6ZM1981.77 29.0314V22.7147H1978.92L1977.04 24.8544L1981.77 29.0314ZM1999.42 29.0314L2004.15 33.2111L2013.42 22.7147H1999.42V29.0314ZM1933.86 103.316L1929.13 99.1361L1925.44 103.316L1929.13 107.495L1933.86 103.316ZM1999.42 177.6V183.917H2013.42L2004.15 173.42L1999.42 177.6ZM1981.77 177.6L1977.04 181.777L1978.92 183.917H1981.77V177.6ZM1925.13 113.344L1929.87 109.167L1925.13 103.792L1920.39 109.167L1925.13 113.344ZM1868.49 177.6V183.917H1871.34L1873.23 181.777L1868.49 177.6ZM1850.85 177.6L1846.11 173.42L1836.85 183.917H1850.85V177.6ZM1916.4 103.316L1921.14 107.495L1924.83 103.316L1921.14 99.1361L1916.4 103.316ZM1850.85 29.0314V22.7147H1836.85L1846.11 33.2111L1850.85 29.0314ZM1868.49 29.0314L1873.23 24.8544L1871.34 22.7147H1868.49V29.0314ZM1925.13 93.2874L1920.39 97.4644L1925.13 102.84L1929.87 97.4644L1925.13 93.2874ZM1981.77 29.0314V35.3481H1999.42V29.0314V22.7147H1981.77V29.0314ZM1999.42 29.0314L1994.68 24.8518L1929.13 99.1361L1933.86 103.316L1938.6 107.495L2004.15 33.2111L1999.42 29.0314ZM1933.86 103.316L1929.13 107.495L1994.68 181.78L1999.42 177.6L2004.15 173.42L1938.6 99.1361L1933.86 103.316ZM1999.42 177.6V171.283H1981.77V177.6V183.917H1999.42V177.6ZM1981.77 177.6L1986.51 173.423L1929.87 109.167L1925.13 113.344L1920.39 117.521L1977.04 181.777L1981.77 177.6ZM1925.13 113.344L1920.39 109.167L1863.75 173.423L1868.49 177.6L1873.23 181.777L1929.87 117.521L1925.13 113.344ZM1868.49 177.6V171.283H1850.85V177.6V183.917H1868.49V177.6ZM1850.85 177.6L1855.58 181.78L1921.14 107.495L1916.4 103.316L1911.67 99.1361L1846.11 173.42L1850.85 177.6ZM1916.4 103.316L1921.14 99.1361L1855.58 24.8518L1850.85 29.0314L1846.11 33.2111L1911.67 107.495L1916.4 103.316ZM1850.85 29.0314V35.3481H1868.49V29.0314V22.7147H1850.85V29.0314ZM1868.49 29.0314L1863.75 33.2084L1920.39 97.4644L1925.13 93.2874L1929.87 89.1104L1873.23 24.8544L1868.49 29.0314ZM1925.13 93.2874L1929.87 97.4644L1986.51 33.2084L1981.77 29.0314L1977.04 24.8544L1920.39 89.1104L1925.13 93.2874Z" fill="#E9622D" mask="url(#path-1-outside-1_786_169)"/>
<rect width="205.712" height="205.712" rx="6.08256" fill="#E9622D"/>
<path d="M99.1035 113.357L37.2218 85.1881L21.8523 92.3918V122.523L32.5181 118.002C33.3883 117.63 37.1673 116.785 40.2254 118.275L88.0102 140.607L87.8611 157.672L43.1094 137.129C39.0568 134.198 34.333 135.515 33.4132 135.639L21.9517 140.607V153.201C21.9589 156.753 22.6241 159.262 26.1726 161.349L103.506 198.008L179.308 161.696C183.619 159.28 183.935 156.579 183.933 156.057V147.363C184.122 143.831 183.411 142.153 180.701 140.185L171.8 135.862C171.8 135.862 170.632 135.44 169.09 135.44C167.549 135.44 166.206 135.862 166.206 135.862L117.153 157.846V140.507L144.899 127.541L111.012 112.142H110.479C105.951 112.698 104.372 115.014 99.1035 113.357Z" fill="#1E1E1E"/>
<path d="M178.735 43.0092L103.03 7.88501L26.6312 42.4309C24.734 43.7942 23.0248 43.7053 21.7031 48.5573L21.8817 58.6557C21.6982 60.6056 23.4746 64.1146 25.8063 65.1861L34.3753 69.4274C36.2136 70.0007 37.1946 69.9972 38.853 69.4274L87.8398 47.7831V65.1861L59.56 77.9347L90.1652 92.2179C90.5836 92.2161 93.0989 93.5593 94.5658 93.2612L99.4885 91.9044C101.724 91.1318 102.862 91.5373 104.08 91.9044L166.329 119.965L183.583 112.165V82.083L173.489 86.753C171.396 88.2123 167.174 87.5976 165.36 87.1256L116.829 65.0923L117.077 47.704L161.332 67.8992C162.845 68.6344 166.056 70.4578 171.973 69.6132L183.608 64.3222V51.5046C183.608 47.07 182.488 44.5346 178.735 43.0092Z" fill="#1E1E1E"/>
</svg>
